<?xml version="1.0" encoding="utf-8"?>
<!-- Generator: Adobe Illustrator 24.0.0, SVG Export Plug-In . SVG Version: 6.00 Build 0)  -->
<svg version="1.1" id="bc263456-463a-4a26-ab4e-25ee29596588"
	 xmlns="http://www.w3.org/2000/svg" xmlns:xlink="http://www.w3.org/1999/xlink" x="0px" y="0px" viewBox="0 0 512 597.4"
	 style="enable-background:new 0 0 512 597.4;" xml:space="preserve">
<style type="text/css">
	.st0{opacity:0.5;fill:#DEE3F3;enable-background:new    ;}
	.st1{fill:#007CBA;}
	.st2{opacity:0.1;enable-background:new    ;}
	.st3{opacity:0.3;enable-background:new    ;}
	.st4{fill:#F38B00;}
	.st5{enable-background:new    ;}
	.st6{clip-path:url(#SVGID_2_);fill:#FFFFFF;}
	.st7{fill:#FFFFFF;}
</style>
<title>Artificial intelligence</title>
<ellipse class="st0" cx="256" cy="554.4" rx="256" ry="43"/>
<path class="st1" d="M134.6,112.7h206.1c7.2,0,13,5.8,13,13v81.7c0,7.2-5.8,13-13,13H134.6c-7.2,0-13-5.8-13-13v-81.7
	C121.6,118.5,127.5,112.7,134.6,112.7z"/>
<rect x="140.1" y="203.8" class="st2" width="195" height="2"/>
<rect x="140.1" y="129.5" class="st3" width="195" height="74"/>
<circle class="st4" cx="185.5" cy="168" r="26.9"/>
<circle class="st4" cx="289.8" cy="168" r="26.9"/>
<rect x="217.5" y="220.3" class="st4" width="40.3" height="23.5"/>
<rect x="153.6" y="237.1" class="st1" width="168.1" height="134.5"/>
<rect x="150.2" y="398.5" class="st4" width="174.8" height="16.8"/>
<polygon class="st1" points="178.8,455.7 178.8,475.8 178.8,506.1 178.8,522.9 178.8,533 209.1,533 209.1,522.9 209.1,506.1 
	209.1,475.8 209.1,455.7 209.1,432.1 178.8,432.1 "/>
<polygon class="st1" points="269.6,432.1 269.6,455.7 269.6,475.8 269.6,506.1 269.6,522.9 269.6,533 299.9,533 299.9,522.9 
	299.9,506.1 299.9,475.8 299.9,455.7 299.9,432.1 "/>
<path class="st1" d="M130.7,267.4v31.1c-8.3,1.5-16,5.2-22.4,10.8c-5.9,5.4-10.4,12.1-13.3,19.5c-3.9,9.4-5.8,19.9-6.6,29.8
	c-1,13.3-0.3,26.8,1.9,40H56.7c-1.4-18.6-1-34.5,0.9-48.2c2.1-15.4,5.9-28,10.8-38.2c9.7-20.4,23.6-31.5,35.8-37.5
	C118.6,267.4,130.7,267.4,130.7,267.4z"/>
<rect x="178.8" y="432.1" class="st3" width="30.3" height="23.5"/>
<rect x="178.8" y="475.8" class="st3" width="30.3" height="30.3"/>
<rect x="178.8" y="522.9" class="st3" width="30.3" height="10.1"/>
<rect x="269.6" y="432.1" class="st3" width="30.3" height="23.5"/>
<rect x="269.6" y="475.8" class="st3" width="30.3" height="30.3"/>
<rect x="269.6" y="522.9" class="st3" width="30.3" height="10.1"/>
<path class="st3" d="M130.7,267.4v31.1c-8.3,1.5-16,5.2-22.4,10.8l-4.2-34.7C118.6,267.4,130.7,267.4,130.7,267.4z"/>
<path class="st3" d="M95,328.8c-3.9,9.4-5.8,19.9-6.6,29.8l-30.9-8.3c2.1-15.4,5.9-28,10.8-38.2L95,328.8z"/>
<path class="st1" d="M344.6,267.4v31.1c8.3,1.5,16,5.2,22.4,10.8c5.9,5.4,10.4,12.1,13.3,19.5c3.9,9.4,5.8,19.9,6.6,29.8
	c1,13.3,0.3,26.8-1.9,40h33.6c1.4-18.6,1-34.5-0.9-48.2c-2.1-15.4-5.9-28-10.8-38.2c-9.7-20.4-23.6-31.5-35.8-37.5
	C356.7,267.4,344.6,267.4,344.6,267.4z"/>
<path class="st3" d="M344.6,267.4v31.1c8.3,1.5,16,5.2,22.4,10.8l4.2-34.7C356.7,267.4,344.6,267.4,344.6,267.4z"/>
<path class="st3" d="M380.3,328.8c3.9,9.4,5.8,19.9,6.6,29.8l30.9-8.3c-2.1-15.4-5.9-28-10.8-38.2L380.3,328.8z"/>
<rect x="217.5" y="220.3" class="st2" width="40.3" height="2.8"/>
<path class="st2" d="M324.7,261.1v56.3c-2-2.2-3.1-5-3.1-8V269C321.6,266.1,322.7,263.2,324.7,261.1z"/>
<path class="st2" d="M154.2,264.8V307c-0.2,2.7-1.3,5.2-3.1,7.1v-56.4C152.9,259.6,154,262.1,154.2,264.8z"/>
<rect x="162" y="371.6" class="st2" width="151.3" height="2"/>
<rect x="158.6" y="415.3" class="st2" width="74" height="1.5"/>
<rect x="239.3" y="415.3" class="st2" width="74" height="1.5"/>
<rect x="166.9" y="13.1" class="st1" width="11.6" height="99.6"/>
<rect x="299.7" y="13.1" class="st1" width="11.6" height="99.6"/>
<circle class="st2" cx="172.3" cy="13.9" r="13.1"/>
<circle class="st1" cx="172.3" cy="13.1" r="13.1"/>
<circle class="st2" cx="305.8" cy="13.9" r="13.1"/>
<circle class="st1" cx="305.8" cy="13.1" r="13.1"/>
<g class="st5">
	<g>
		<g>
			<defs>
				<rect id="SVGID_1_" x="188" y="252.4" width="100" height="100"/>
			</defs>
			<clipPath id="SVGID_2_">
				<use xlink:href="#SVGID_1_"  style="overflow:visible;"/>
			</clipPath>
			<path class="st6" d="M238,255.9c-25.6,0-46.5,20.9-46.5,46.5s20.9,46.5,46.5,46.5s46.5-20.9,46.5-46.5S263.7,255.9,238,255.9
				L238,255.9z M238,352.4c-27.6,0-50-22.4-50-50s22.4-50,50-50s50,22.4,50,50S265.6,352.4,238,352.4L238,352.4z"/>
		</g>
	</g>
	<polygon class="st7" points="230.9,287.8 248.6,308.2 252.2,307.3 259.9,294.8 249.6,298.5 231.2,269.3 210.5,302.6 215,306.4 	"/>
	<polygon class="st7" points="266.5,292.5 258.4,305.7 267.2,303.4 276.9,311.7 272.8,296.8 269,291.6 	"/>
	<path class="st7" d="M203.4,319.9l8.9-10.1l-4-3.4l-5.6,8.8l-8.7-7.4c0.3,2.3,0.8,4.6,1.4,6.9L203.4,319.9L203.4,319.9z"/>
	<path class="st7" d="M253.5,313l-7.5,12l-15.4-18.6l-12.3,4.8l-14.2,13.7l-6.4-3.6c7.1,15.1,22.4,25.6,40.3,25.6
		c17.3,0,32.2-9.8,39.6-24.2l-14.2-12L253.5,313L253.5,313z"/>
	<path class="st7" d="M193.7,305.3l6.4-7.1l15.5,13.2l15.4-6.2l15,18.5l24.5-39.1l9.2,33.4c0.5-1.4,1-2.8,1.4-4.3l-9.7-35.2
		l-25.6,41l-14-17.2l-15.7,6.3l-16.2-13.8l-6.2,7c0,0.2,0,0.4,0,0.6C193.6,303.4,193.6,304.4,193.7,305.3L193.7,305.3z"/>
	<path class="st7" d="M281.5,311.6c0.3-1.2,0.4-2.4,0.6-3.6l-2.4-3L281.5,311.6L281.5,311.6z"/>
	<polygon class="st7" points="232.3,297.3 225.2,304 232,301.2 245.6,318 248,314.2 246,314.8 	"/>
</g>
</svg>
