<?xml version="1.0" encoding="utf-8"?>
<!-- Generator: Adobe Illustrator 24.0.0, SVG Export Plug-In . SVG Version: 6.00 Build 0)  -->
<svg version="1.1" id="_x30_d3bee8d-6283-4722-b2f5-6188c764ca3b"
	 xmlns="http://www.w3.org/2000/svg" xmlns:xlink="http://www.w3.org/1999/xlink" x="0px" y="0px" viewBox="0 0 885 657"
	 style="enable-background:new 0 0 885 657;" xml:space="preserve">
<style type="text/css">
	.st0{fill:url(#SVGID_1_);}
	.st1{fill:#F5F5F5;}
	.st2{fill:#F38B00;}
	.st3{fill:url(#SVGID_2_);}
	.st4{fill:#FFFFFF;}
	.st5{fill:url(#SVGID_3_);}
	.st6{fill:url(#SVGID_4_);}
	.st7{fill:url(#SVGID_5_);}
</style>
<title>typing</title>
<linearGradient id="SVGID_1_" gradientUnits="userSpaceOnUse" x1="2604.5" y1="30" x2="2604.5" y2="538" gradientTransform="matrix(-1 0 0 -1 2904 538)">
	<stop  offset="0" style="stop-color:#808080;stop-opacity:0.25"/>
	<stop  offset="0.54" style="stop-color:#808080;stop-opacity:0.12"/>
	<stop  offset="1" style="stop-color:#808080;stop-opacity:0.1"/>
</linearGradient>
<polygon class="st0" points="0,0 599,0 599,434.1 218.1,434.1 177,508 133.8,434.1 0,434.1 "/>
<polygon class="st1" points="7.6,8.3 589.5,8.3 589.5,428 211.8,428 176.8,503.3 137.5,428 7.6,428 "/>
<rect x="81.2" y="134.1" class="st2" width="433.5" height="18.5"/>
<rect x="81.2" y="174.7" class="st2" width="433.5" height="18.5"/>
<rect x="81.2" y="215.2" class="st2" width="433.5" height="18.5"/>
<rect x="81.2" y="255.8" class="st2" width="433.5" height="18.5"/>
<linearGradient id="SVGID_2_" gradientUnits="userSpaceOnUse" x1="589" y1="1" x2="589" y2="508" gradientTransform="matrix(1 0 0 -1 0 658)">
	<stop  offset="0" style="stop-color:#808080;stop-opacity:0.25"/>
	<stop  offset="0.54" style="stop-color:#808080;stop-opacity:0.12"/>
	<stop  offset="1" style="stop-color:#808080;stop-opacity:0.1"/>
</linearGradient>
<polygon class="st3" points="885,150 293,150 293,583.2 675,583 711,657 752.8,583.2 885,583.2 "/>
<polygon class="st4" points="880.4,156.7 298.5,156.7 298.5,576.3 676.2,576.3 711.2,651.7 750.5,576.3 880.4,576.3 "/>
<linearGradient id="SVGID_3_" gradientUnits="userSpaceOnUse" x1="483.99" y1="249.18" x2="483.99" y2="333.8" gradientTransform="matrix(1 0 0 -1 0 658)">
	<stop  offset="0" style="stop-color:#808080;stop-opacity:0.25"/>
	<stop  offset="0.54" style="stop-color:#808080;stop-opacity:0.12"/>
	<stop  offset="1" style="stop-color:#808080;stop-opacity:0.1"/>
</linearGradient>
<circle class="st5" cx="484" cy="366.5" r="42.3"/>
<linearGradient id="SVGID_4_" gradientUnits="userSpaceOnUse" x1="589.48" y1="249.18" x2="589.48" y2="333.8" gradientTransform="matrix(1 0 0 -1 0 658)">
	<stop  offset="0" style="stop-color:#808080;stop-opacity:0.25"/>
	<stop  offset="0.54" style="stop-color:#808080;stop-opacity:0.12"/>
	<stop  offset="1" style="stop-color:#808080;stop-opacity:0.1"/>
</linearGradient>
<circle class="st6" cx="589.5" cy="366.5" r="42.3"/>
<linearGradient id="SVGID_5_" gradientUnits="userSpaceOnUse" x1="694.96" y1="249.18" x2="694.96" y2="333.8" gradientTransform="matrix(1 0 0 -1 0 658)">
	<stop  offset="0" style="stop-color:#808080;stop-opacity:0.25"/>
	<stop  offset="0.54" style="stop-color:#808080;stop-opacity:0.12"/>
	<stop  offset="1" style="stop-color:#808080;stop-opacity:0.1"/>
</linearGradient>
<circle class="st7" cx="695" cy="366.5" r="42.3"/>
<circle class="st2" cx="484" cy="366.5" r="38.3"/>
<circle class="st2" cx="589.5" cy="366.5" r="38.3"/>
<circle class="st2" cx="695" cy="366.5" r="38.3"/>
</svg>
